<svg width="1700" height="6900" viewBox="0 0 1700 6900" fill="none" xmlns="http://www.w3.org/2000/svg">
  <defs>
    <filter id="shadow" x="-10%" y="-10%" width="120%" height="120%">
      <feDropShadow dx="0" dy="18" stdDeviation="30" flood-color="#587092" flood-opacity="0.12"/>
    </filter>
    <filter id="soft" x="-10%" y="-10%" width="120%" height="120%">
      <feDropShadow dx="0" dy="8" stdDeviation="16" flood-color="#60708C" flood-opacity="0.08"/>
    </filter>
    <linearGradient id="bg" x1="850" y1="0" x2="850" y2="6900" gradientUnits="userSpaceOnUse">
      <stop stop-color="#F8FBFF"/>
      <stop offset="1" stop-color="#EEF4FB"/>
    </linearGradient>
    <linearGradient id="blueCard" x1="0" y1="0" x2="0" y2="1">
      <stop stop-color="#EFFDFF"/>
      <stop offset="1" stop-color="#E9FBFF"/>
    </linearGradient>
    <linearGradient id="whiteCard" x1="0" y1="0" x2="0" y2="1">
      <stop stop-color="#FFFFFF"/>
      <stop offset="1" stop-color="#FBFCFF"/>
    </linearGradient>
    <style>
      .font { font-family: Inter, "PingFang SC", "Microsoft YaHei", Arial, sans-serif; }
      .h1 { font-size: 46px; font-weight: 900; fill: #202634; }
      .h2 { font-size: 27px; font-weight: 900; fill: #202634; }
      .sub { font-size: 18px; font-weight: 600; fill: #647083; }
      .body { font-size: 19px; font-weight: 500; fill: #4E596F; }
      .body2 { font-size: 18px; font-weight: 500; fill: #697487; }
      .small { font-size: 15px; font-weight: 700; fill: #7A8496; }
      .label { font-size: 16px; font-weight: 900; fill: #202634; }
      .blue { fill: #3A5BFD; }
      .green { fill: #10A663; }
      .cyan { fill: #0F92AA; }
      .muted { fill: #7A8496; }
      .dark { fill: #202634; }
    </style>
  </defs>

  <rect width="1700" height="6900" fill="url(#bg)"/>

  <rect x="32" y="28" width="1636" height="310" rx="36" fill="white" filter="url(#shadow)"/>
  <rect x="64" y="66" width="190" height="34" rx="17" fill="#EEF3FF"/>
  <text x="84" y="89" class="font" font-size="17" font-weight="900" fill="#4F6BFF">LUI 连续场景 · 当前统一版</text>
  <text x="64" y="150" class="font h1">每个场景按真实对话串起来：用户说什么，AI 出什么</text>
  <text x="64" y="198" class="font sub">下面每张都是完整上下文，不再把样式孤立列出来。重点看中间 LUI：有时是用户气泡，有时是 Agent 思考中，有时是结果卡，有时只是裸文字。</text>
  <rect x="1115" y="66" width="500" height="220" rx="28" fill="#F4F8FD"/>
  <text x="1145" y="112" class="font h2" font-size="22">阅读方法</text>
  <text x="1145" y="154" class="font body2">左栏看触发上下文：用户说了什么或做了什么。</text>
  <text x="1145" y="194" class="font body2">中间看 LUI：这一轮左侧应该出现哪些内容。</text>
  <text x="1145" y="234" class="font body2">右栏看下一句：用户接下来可以怎么继续。</text>

  <text x="32" y="420" class="font h2">一、正常推进：用户真的在推进创作</text>

  <!-- Scenario 01 -->
  <g transform="translate(32 456)">
    <rect width="1636" height="560" rx="30" fill="white" stroke="#DCE5F3" filter="url(#soft)"/>
    <rect x="0" y="0" width="1636" height="92" rx="30" fill="white"/>
    <rect x="26" y="24" width="48" height="48" rx="16" fill="#EEF3FF"/>
    <text x="42" y="56" class="font" font-size="18" font-weight="900" fill="#3A5BFD">01</text>
    <text x="110" y="42" class="font h2">从一句话开始创作</text>
    <text x="110" y="70" class="font body2">用户从首页输入明确创作需求，AI 生成右侧创意收集内容。</text>
    <rect x="1500" y="28" width="96" height="36" rx="18" fill="#F6FCF8" stroke="#D9F0E4"/>
    <text x="1522" y="52" class="font" font-size="15" font-weight="900" fill="#10A663">完整链路</text>

    <rect x="24" y="122" width="320" height="390" rx="24" fill="#F8FAFC"/>
    <text x="48" y="164" class="font label">触发上下文</text>
    <rect x="48" y="192" width="250" height="86" rx="18" fill="white"/>
    <text x="66" y="226" class="font label">用户说</text>
    <text x="66" y="258" class="font body2">我要创作一个雅思培训广告。</text>
    <rect x="48" y="300" width="250" height="96" rx="18" fill="white"/>
    <text x="66" y="334" class="font label">系统判断</text>
    <text x="66" y="366" class="font body2">有效创作需求，需要进入</text>
    <text x="66" y="392" class="font body2">深度编排。</text>

    <text x="395" y="164" class="font label">LUI 应该这样出现</text>
    <rect x="940" y="178" width="290" height="72" rx="24" fill="#F8FAFD" filter="url(#soft)"/>
    <text x="976" y="222" class="font body">我要创作一个雅思培训广告。</text>
    <rect x="395" y="270" width="375" height="58" rx="29" fill="#F7F8FA" stroke="#DDE2EA"/>
    <text x="420" y="307" class="font" font-size="21" font-weight="900" fill="#10B464">✓</text>
    <text x="455" y="307" class="font" font-size="20" font-weight="900" fill="#202634">Agent 思考完成</text>
    <text x="625" y="307" class="font small">已识别创作意图</text>
    <rect x="395" y="350" width="330" height="96" rx="26" fill="url(#blueCard)" stroke="#BFEFFF"/>
    <rect x="420" y="374" width="52" height="52" rx="18" fill="white"/>
    <text x="438" y="408" class="font" font-size="26" font-weight="900" fill="#13A3BF">✓</text>
    <text x="492" y="393" class="font" font-size="21" font-weight="900" fill="#202634">右侧创意收集已生成</text>
    <text x="492" y="421" class="font" font-size="16" font-weight="700" fill="#647083">现在先看右侧业务信息</text>
    <text x="395" y="492" class="font body">我已经把你的需求整理成可确认的业务信息。先看右侧业务点、目标受众和视频风格。</text>

    <rect x="1280" y="122" width="320" height="390" rx="24" fill="#F8FAFC"/>
    <text x="1304" y="164" class="font label">用户可以再说</text>
    <rect x="1304" y="192" width="250" height="70" rx="18" fill="white"/>
    <text x="1322" y="224" class="font label">继续补充</text>
    <text x="1322" y="248" class="font body2">目标受众改成大学生。</text>
    <rect x="1304" y="280" width="250" height="70" rx="18" fill="white"/>
    <text x="1322" y="312" class="font label">调整方向</text>
    <text x="1322" y="336" class="font body2">不要太硬，要像真实分享。</text>
    <rect x="1304" y="368" width="250" height="70" rx="18" fill="white"/>
    <text x="1322" y="400" class="font label">确认推进</text>
    <text x="1322" y="424" class="font body2">这些信息没问题，继续生成方案。</text>
  </g>

  <!-- Scenario 02 -->
  <g transform="translate(32 1048)">
    <rect width="1636" height="560" rx="30" fill="white" stroke="#DCE5F3" filter="url(#soft)"/>
    <rect x="26" y="24" width="48" height="48" rx="16" fill="#EEF3FF"/>
    <text x="42" y="56" class="font" font-size="18" font-weight="900" fill="#3A5BFD">02</text>
    <text x="110" y="42" class="font h2">用户确认业务信息，系统生成方案</text>
    <text x="110" y="70" class="font body2">用户不是输入新需求，而是点击右侧确认按钮。LUI 要表现正在生成下一步。</text>
    <rect x="1500" y="28" width="96" height="36" rx="18" fill="#F6FCF8" stroke="#D9F0E4"/>
    <text x="1522" y="52" class="font" font-size="15" font-weight="900" fill="#10A663">按钮触发</text>

    <rect x="24" y="122" width="320" height="390" rx="24" fill="#F8FAFC"/>
    <text x="48" y="164" class="font label">触发上下文</text>
    <rect x="48" y="192" width="250" height="96" rx="18" fill="white"/>
    <text x="66" y="226" class="font label">用户操作</text>
    <text x="66" y="258" class="font body2">点击「确认业务信息，生成方案规划」。</text>

    <text x="395" y="164" class="font label">LUI 应该这样出现</text>
    <rect x="945" y="178" width="245" height="72" rx="24" fill="#F8FAFD" filter="url(#soft)"/>
    <text x="982" y="222" class="font body">我已确认以上业务信息。</text>
    <rect x="395" y="278" width="560" height="190" rx="30" fill="url(#whiteCard)" stroke="#E8EDF5"/>
    <rect x="425" y="308" width="142" height="38" rx="19" fill="#EEF3FF"/>
    <text x="446" y="333" class="font" font-size="17" font-weight="900" fill="#5E6F96">Agent 思考中</text>
    <text x="425" y="392" class="font" font-size="25" font-weight="900" fill="#202634">正在生成方案规划</text>
    <text x="425" y="430" class="font body2">根据当前目标，组织更适合的创意主题、角色方向和内容表达方式。</text>
    <text x="425" y="506" class="font body">约 10 秒后：</text>
    <rect x="600" y="482" width="330" height="78" rx="24" fill="url(#blueCard)" stroke="#BFEFFF"/>
    <text x="630" y="530" class="font" font-size="22" font-weight="900" fill="#202634">右侧方案规划已生成</text>

    <rect x="1280" y="122" width="320" height="390" rx="24" fill="#F8FAFC"/>
    <text x="1304" y="164" class="font label">用户可以再说</text>
    <rect x="1304" y="192" width="250" height="70" rx="18" fill="white"/>
    <text x="1322" y="224" class="font label">改主题</text>
    <text x="1322" y="248" class="font body2">主题更聚焦口语提分。</text>
    <rect x="1304" y="280" width="250" height="70" rx="18" fill="white"/>
    <text x="1322" y="312" class="font label">换角色</text>
    <text x="1322" y="336" class="font body2">老师更专业，家长更焦虑。</text>
    <rect x="1304" y="368" width="250" height="70" rx="18" fill="white"/>
    <text x="1322" y="400" class="font label">继续推进</text>
    <text x="1322" y="424" class="font body2">方案可以，继续生成分镜。</text>
  </g>

  <text x="32" y="1685" class="font h2">二、局部调整：用户在改某一块，不要出大卡</text>

  <!-- Scenario 03 -->
  <g transform="translate(32 1720)">
    <rect width="1636" height="520" rx="30" fill="white" stroke="#DCE5F3" filter="url(#soft)"/>
    <rect x="26" y="24" width="48" height="48" rx="16" fill="#EEF3FF"/>
    <text x="42" y="56" class="font" font-size="18" font-weight="900" fill="#3A5BFD">03</text>
    <text x="110" y="42" class="font h2">用户补充创意收集里的信息</text>
    <text x="110" y="70" class="font body2">只是补充业务点、受众、风格等字段。右侧字段更新，LUI 只用文字说明。</text>
    <rect x="1500" y="28" width="96" height="36" rx="18" fill="#FFF8EC" stroke="#FFD8A8"/>
    <text x="1524" y="52" class="font" font-size="15" font-weight="900" fill="#C76B0A">小节点</text>

    <rect x="24" y="122" width="320" height="350" rx="24" fill="#F8FAFC"/>
    <text x="48" y="164" class="font label">触发上下文</text>
    <rect x="48" y="192" width="250" height="100" rx="18" fill="white"/>
    <text x="66" y="226" class="font label">用户说</text>
    <text x="66" y="258" class="font body2">目标受众改成备考雅思的大学生和职场新人。</text>

    <text x="395" y="164" class="font label">LUI 应该这样出现</text>
    <rect x="895" y="178" width="360" height="72" rx="24" fill="#F8FAFD" filter="url(#soft)"/>
    <text x="930" y="222" class="font body">目标受众改成备考雅思的大学生和职场新人。</text>
    <rect x="395" y="280" width="520" height="58" rx="29" fill="#F7F8FA" stroke="#DDE2EA"/>
    <text x="420" y="317" class="font" font-size="21" font-weight="900" fill="#10B464">✓</text>
    <text x="455" y="317" class="font" font-size="20" font-weight="900" fill="#202634">Agent 思考完成</text>
    <text x="625" y="317" class="font small">本轮已完成 · 正在解析创意补充要求</text>
    <text x="395" y="392" class="font body">我已经把这条补充要求并入右侧创意信息。先看右侧业务信息、视频信息和补充信息是否还要继续补充。</text>
    <text x="395" y="450" class="font" font-size="22" font-weight="900" fill="#2F394C">优先确认：</text>
    <text x="520" y="450" class="font body">业务点、目标受众、转化方式、画面风格。</text>

    <rect x="1280" y="122" width="320" height="350" rx="24" fill="#F8FAFC"/>
    <text x="1304" y="164" class="font label">用户可以再说</text>
    <rect x="1304" y="192" width="250" height="70" rx="18" fill="white"/>
    <text x="1322" y="224" class="font label">继续补充</text>
    <text x="1322" y="248" class="font body2">视频风格更真实一点。</text>
    <rect x="1304" y="280" width="250" height="70" rx="18" fill="white"/>
    <text x="1322" y="312" class="font label">确认推进</text>
    <text x="1322" y="336" class="font body2">信息可以，生成方案。</text>
  </g>

  <!-- Scenario 04 -->
  <g transform="translate(32 2268)">
    <rect width="1636" height="520" rx="30" fill="white" stroke="#DCE5F3" filter="url(#soft)"/>
    <rect x="26" y="24" width="48" height="48" rx="16" fill="#EEF3FF"/>
    <text x="42" y="56" class="font" font-size="18" font-weight="900" fill="#3A5BFD">04</text>
    <text x="110" y="42" class="font h2">用户在方案规划里改主题、角色或结构</text>
    <text x="110" y="70" class="font body2">这是当前页面内的调整，不代表阶段完成，所以不出结果卡。</text>
    <rect x="1500" y="28" width="96" height="36" rx="18" fill="#FFF8EC" stroke="#FFD8A8"/>
    <text x="1524" y="52" class="font" font-size="15" font-weight="900" fill="#C76B0A">小节点</text>

    <rect x="24" y="122" width="320" height="350" rx="24" fill="#F8FAFC"/>
    <text x="48" y="164" class="font label">触发上下文</text>
    <rect x="48" y="192" width="250" height="100" rx="18" fill="white"/>
    <text x="66" y="226" class="font label">用户说</text>
    <text x="66" y="258" class="font body2">这个角色气质还不够贴合，帮我调整得更准确。</text>

    <text x="395" y="164" class="font label">LUI 应该这样出现</text>
    <rect x="870" y="178" width="390" height="72" rx="24" fill="#F8FAFD" filter="url(#soft)"/>
    <text x="900" y="222" class="font body">这个角色气质还不够贴合，帮我调整得更准确。</text>
    <rect x="395" y="280" width="540" height="58" rx="29" fill="#F7F8FA" stroke="#DDE2EA"/>
    <text x="420" y="317" class="font" font-size="21" font-weight="900" fill="#10B464">✓</text>
    <text x="455" y="317" class="font" font-size="20" font-weight="900" fill="#202634">Agent 思考完成</text>
    <text x="625" y="317" class="font small">本轮已完成 · 正在解析方案调整要求</text>
    <text x="395" y="392" class="font body">我已经把这次修改方向并入右侧方案。先看创意主题、角色列表和剧本大纲，再决定要不要继续细化。</text>
    <text x="395" y="450" class="font" font-size="22" font-weight="900" fill="#2F394C">优先确认：</text>
    <text x="520" y="450" class="font body">创意主题、角色设定、剧本大纲。</text>

    <rect x="1280" y="122" width="320" height="350" rx="24" fill="#F8FAFC"/>
    <text x="1304" y="164" class="font label">用户可以再说</text>
    <rect x="1304" y="192" width="250" height="70" rx="18" fill="white"/>
    <text x="1322" y="224" class="font label">继续细化</text>
    <text x="1322" y="248" class="font body2">再把主题改得更像真实学员分享。</text>
    <rect x="1304" y="280" width="250" height="70" rx="18" fill="white"/>
    <text x="1322" y="312" class="font label">确认推进</text>
    <text x="1322" y="336" class="font body2">角色可以，继续生成分镜。</text>
  </g>

  <!-- Scenario 05 -->
  <g transform="translate(32 2816)">
    <rect width="1636" height="520" rx="30" fill="white" stroke="#DCE5F3" filter="url(#soft)"/>
    <rect x="26" y="24" width="48" height="48" rx="16" fill="#EEF3FF"/>
    <text x="42" y="56" class="font" font-size="18" font-weight="900" fill="#3A5BFD">05</text>
    <text x="110" y="42" class="font h2">角色变化后，用户点击同步剧本</text>
    <text x="110" y="70" class="font body2">角色变更本身不进左侧对话流；只有用户点击同步剧本后，LUI 反馈同步结果。</text>
    <rect x="1500" y="28" width="96" height="36" rx="18" fill="#FFF8EC" stroke="#FFD8A8"/>
    <text x="1524" y="52" class="font" font-size="15" font-weight="900" fill="#C76B0A">小节点</text>

    <rect x="24" y="122" width="320" height="350" rx="24" fill="#F8FAFC"/>
    <text x="48" y="164" class="font label">触发上下文</text>
    <rect x="48" y="192" width="250" height="100" rx="18" fill="white"/>
    <text x="66" y="226" class="font label">用户操作</text>
    <text x="66" y="258" class="font body2">删除或更换角色后，点击「同步剧本」。</text>

    <text x="395" y="164" class="font label">LUI 应该这样出现</text>
    <rect x="920" y="178" width="300" height="72" rx="24" fill="#F8FAFD" filter="url(#soft)"/>
    <text x="960" y="222" class="font body">同步最新角色到剧本。</text>
    <rect x="395" y="278" width="560" height="146" rx="30" fill="url(#whiteCard)" stroke="#E8EDF5"/>
    <rect x="425" y="308" width="142" height="38" rx="19" fill="#EEF3FF"/>
    <text x="446" y="333" class="font" font-size="17" font-weight="900" fill="#5E6F96">Agent 思考中</text>
    <text x="425" y="390" class="font" font-size="24" font-weight="900" fill="#202634">AI 正在一键更新剧本</text>
    <text x="395" y="470" class="font body">我已经根据最新角色变化，把右侧剧本大纲整套同步好了。先看角色出场和剧情关系是否顺了。</text>

    <rect x="1280" y="122" width="320" height="350" rx="24" fill="#F8FAFC"/>
    <text x="1304" y="164" class="font label">用户可以再说</text>
    <rect x="1304" y="192" width="250" height="70" rx="18" fill="white"/>
    <text x="1322" y="224" class="font label">继续调整</text>
    <text x="1322" y="248" class="font body2">第二段还是不要出现家长。</text>
    <rect x="1304" y="280" width="250" height="70" rx="18" fill="white"/>
    <text x="1322" y="312" class="font label">确认推进</text>
    <text x="1322" y="336" class="font body2">大纲可以，生成分镜。</text>
  </g>

  <text x="32" y="3412" class="font h2">三、分镜与成片：大节点推进出卡，局部修改仍然只出文字</text>

  <!-- Scenario 06 -->
  <g transform="translate(32 3448)">
    <rect width="1636" height="560" rx="30" fill="white" stroke="#DCE5F3" filter="url(#soft)"/>
    <rect x="26" y="24" width="48" height="48" rx="16" fill="#EEF3FF"/>
    <text x="42" y="56" class="font" font-size="18" font-weight="900" fill="#3A5BFD">06</text>
    <text x="110" y="42" class="font h2">用户确认方案，系统生成分镜</text>
    <text x="110" y="70" class="font body2">这是从方案规划进入分镜设计，属于大节点完成，需要结果卡。</text>
    <rect x="1500" y="28" width="96" height="36" rx="18" fill="#F6FCF8" stroke="#D9F0E4"/>
    <text x="1522" y="52" class="font" font-size="15" font-weight="900" fill="#10A663">大节点</text>

    <rect x="24" y="122" width="320" height="390" rx="24" fill="#F8FAFC"/>
    <text x="48" y="164" class="font label">触发上下文</text>
    <rect x="48" y="192" width="250" height="96" rx="18" fill="white"/>
    <text x="66" y="226" class="font label">用户操作</text>
    <text x="66" y="258" class="font body2">点击「确认，开始生成分镜」。</text>

    <text x="395" y="164" class="font label">LUI 应该这样出现</text>
    <rect x="920" y="178" width="285" height="72" rx="24" fill="#F8FAFD" filter="url(#soft)"/>
    <text x="960" y="222" class="font body">确认，开始生成分镜。</text>
    <rect x="395" y="278" width="560" height="130" rx="30" fill="url(#whiteCard)" stroke="#E8EDF5"/>
    <rect x="425" y="308" width="142" height="38" rx="19" fill="#EEF3FF"/>
    <text x="446" y="333" class="font" font-size="17" font-weight="900" fill="#5E6F96">Agent 思考中</text>
    <text x="425" y="390" class="font" font-size="24" font-weight="900" fill="#202634">正在生成分镜设计</text>
    <rect x="395" y="430" width="392" height="96" rx="26" fill="url(#blueCard)" stroke="#BFEFFF"/>
    <text x="430" y="485" class="font" font-size="22" font-weight="900" fill="#202634">右侧口播脚本已生成</text>
    <text x="395" y="560" class="font body">我已经把方案拆成可执行的镜头结构。先看右侧口播脚本、镜头节奏和角色出场。</text>

    <rect x="1280" y="122" width="320" height="390" rx="24" fill="#F8FAFC"/>
    <text x="1304" y="164" class="font label">用户可以再说</text>
    <rect x="1304" y="192" width="250" height="70" rx="18" fill="white"/>
    <text x="1322" y="224" class="font label">改一段</text>
    <text x="1322" y="248" class="font body2">第二段口播更短一点。</text>
    <rect x="1304" y="280" width="250" height="70" rx="18" fill="white"/>
    <text x="1322" y="312" class="font label">确认推进</text>
    <text x="1322" y="336" class="font body2">分镜可以，开始设置成片。</text>
  </g>

  <!-- Scenario 07 -->
  <g transform="translate(32 4040)">
    <rect width="1636" height="520" rx="30" fill="white" stroke="#DCE5F3" filter="url(#soft)"/>
    <rect x="26" y="24" width="48" height="48" rx="16" fill="#EEF3FF"/>
    <text x="42" y="56" class="font" font-size="18" font-weight="900" fill="#3A5BFD">07</text>
    <text x="110" y="42" class="font h2">用户修改某一段分镜</text>
    <text x="110" y="70" class="font body2">比如改镜头标题、画面描述、口播脚本、出场角色。只改局部，不出结果卡。</text>
    <rect x="1500" y="28" width="96" height="36" rx="18" fill="#FFF8EC" stroke="#FFD8A8"/>
    <text x="1524" y="52" class="font" font-size="15" font-weight="900" fill="#C76B0A">小节点</text>

    <rect x="24" y="122" width="320" height="350" rx="24" fill="#F8FAFC"/>
    <text x="48" y="164" class="font label">触发上下文</text>
    <rect x="48" y="192" width="250" height="100" rx="18" fill="white"/>
    <text x="66" y="226" class="font label">用户说</text>
    <text x="66" y="258" class="font body2">第二段镜头再紧凑些，口播不要绕。</text>

    <text x="395" y="164" class="font label">LUI 应该这样出现</text>
    <rect x="900" y="178" width="350" height="72" rx="24" fill="#F8FAFD" filter="url(#soft)"/>
    <text x="934" y="222" class="font body">第二段镜头再紧凑些，口播不要绕。</text>
    <rect x="395" y="280" width="540" height="58" rx="29" fill="#F7F8FA" stroke="#DDE2EA"/>
    <text x="420" y="317" class="font" font-size="21" font-weight="900" fill="#10B464">✓</text>
    <text x="455" y="317" class="font" font-size="20" font-weight="900" fill="#202634">Agent 思考完成</text>
    <text x="625" y="317" class="font small">本轮已完成 · 正在解析分镜调整要求</text>
    <text x="395" y="392" class="font body">我已经把这次调整同步到右侧分镜里。先看当前镜头标题、画面描述、口播脚本和预览画面是否一致。</text>
    <text x="395" y="450" class="font" font-size="22" font-weight="900" fill="#2F394C">优先确认：</text>
    <text x="520" y="450" class="font body">镜头标题、画面描述、口播脚本和角色出场。</text>

    <rect x="1280" y="122" width="320" height="350" rx="24" fill="#F8FAFC"/>
    <text x="1304" y="164" class="font label">用户可以再说</text>
    <rect x="1304" y="192" width="250" height="70" rx="18" fill="white"/>
    <text x="1322" y="224" class="font label">继续改</text>
    <text x="1322" y="248" class="font body2">这一段画面再真实一点。</text>
    <rect x="1304" y="280" width="250" height="70" rx="18" fill="white"/>
    <text x="1322" y="312" class="font label">确认推进</text>
    <text x="1322" y="336" class="font body2">分镜没问题，进入成片设置。</text>
  </g>

  <!-- Scenario 08 -->
  <g transform="translate(32 4588)">
    <rect width="1636" height="520" rx="30" fill="white" stroke="#DCE5F3" filter="url(#soft)"/>
    <rect x="26" y="24" width="48" height="48" rx="16" fill="#EEF3FF"/>
    <text x="42" y="56" class="font" font-size="18" font-weight="900" fill="#3A5BFD">08</text>
    <text x="110" y="42" class="font h2">用户新增分镜或新增素材版本</text>
    <text x="110" y="70" class="font body2">虽然是生成内容，但只影响某一段或某个素材版本，这一期仍按小节点处理。</text>
    <rect x="1500" y="28" width="96" height="36" rx="18" fill="#FFF8EC" stroke="#FFD8A8"/>
    <text x="1524" y="52" class="font" font-size="15" font-weight="900" fill="#C76B0A">小节点</text>

    <rect x="24" y="122" width="320" height="350" rx="24" fill="#F8FAFC"/>
    <text x="48" y="164" class="font label">触发上下文</text>
    <rect x="48" y="192" width="250" height="100" rx="18" fill="white"/>
    <text x="66" y="226" class="font label">用户说</text>
    <text x="66" y="258" class="font body2">在第二段后面新增一个学员反馈镜头。</text>

    <text x="395" y="164" class="font label">LUI 应该这样出现</text>
    <rect x="895" y="178" width="360" height="72" rx="24" fill="#F8FAFD" filter="url(#soft)"/>
    <text x="930" y="222" class="font body">新增一个学员反馈镜头。</text>
    <rect x="395" y="278" width="560" height="146" rx="30" fill="url(#whiteCard)" stroke="#E8EDF5"/>
    <rect x="425" y="308" width="142" height="38" rx="19" fill="#EEF3FF"/>
    <text x="446" y="333" class="font" font-size="17" font-weight="900" fill="#5E6F96">Agent 思考中</text>
    <text x="425" y="390" class="font" font-size="24" font-weight="900" fill="#202634">AI 正在更新分镜内容</text>
    <text x="395" y="470" class="font body">我已经把新增分镜同步到右侧。先看新增镜头的画面、节奏和角色是否承接顺畅。</text>

    <rect x="1280" y="122" width="320" height="350" rx="24" fill="#F8FAFC"/>
    <text x="1304" y="164" class="font label">用户可以再说</text>
    <rect x="1304" y="192" width="250" height="70" rx="18" fill="white"/>
    <text x="1322" y="224" class="font label">继续改</text>
    <text x="1322" y="248" class="font body2">这段不要太夸张，更真实一点。</text>
    <rect x="1304" y="280" width="250" height="70" rx="18" fill="white"/>
    <text x="1322" y="312" class="font label">确认推进</text>
    <text x="1322" y="336" class="font body2">新增分镜可以，继续。</text>
  </g>

  <!-- Scenario 09 -->
  <g transform="translate(32 5136)">
    <rect width="1636" height="560" rx="30" fill="white" stroke="#DCE5F3" filter="url(#soft)"/>
    <rect x="26" y="24" width="48" height="48" rx="16" fill="#EEF3FF"/>
    <text x="42" y="56" class="font" font-size="18" font-weight="900" fill="#3A5BFD">09</text>
    <text x="110" y="42" class="font h2">用户确认分镜，系统生成成片设置</text>
    <text x="110" y="70" class="font body2">从分镜设计进入成片设置，属于大节点完成，所以要出结果卡。</text>
    <rect x="1500" y="28" width="96" height="36" rx="18" fill="#F6FCF8" stroke="#D9F0E4"/>
    <text x="1522" y="52" class="font" font-size="15" font-weight="900" fill="#10A663">大节点</text>

    <rect x="24" y="122" width="320" height="390" rx="24" fill="#F8FAFC"/>
    <text x="48" y="164" class="font label">触发上下文</text>
    <rect x="48" y="192" width="250" height="96" rx="18" fill="white"/>
    <text x="66" y="226" class="font label">用户操作</text>
    <text x="66" y="258" class="font body2">点击「确认，开始设置成片」。</text>

    <text x="395" y="164" class="font label">LUI 应该这样出现</text>
    <rect x="900" y="178" width="330" height="72" rx="24" fill="#F8FAFD" filter="url(#soft)"/>
    <text x="934" y="222" class="font body">确认，开始设置成片。</text>
    <rect x="395" y="278" width="560" height="130" rx="30" fill="url(#whiteCard)" stroke="#E8EDF5"/>
    <rect x="425" y="308" width="142" height="38" rx="19" fill="#EEF3FF"/>
    <text x="446" y="333" class="font" font-size="17" font-weight="900" fill="#5E6F96">Agent 思考中</text>
    <text x="425" y="390" class="font" font-size="24" font-weight="900" fill="#202634">正在生成成片设置</text>
    <rect x="395" y="430" width="392" height="96" rx="26" fill="url(#blueCard)" stroke="#BFEFFF"/>
    <text x="430" y="485" class="font" font-size="22" font-weight="900" fill="#202634">右侧成片设置已生成</text>
    <text x="395" y="560" class="font body">我已经把成片预览、字幕、音乐、提示语、Logo 和画中画都准备好了。先看右侧预览。</text>

    <rect x="1280" y="122" width="320" height="390" rx="24" fill="#F8FAFC"/>
    <text x="1304" y="164" class="font label">用户可以再说</text>
    <rect x="1304" y="192" width="250" height="70" rx="18" fill="white"/>
    <text x="1322" y="224" class="font label">调参数</text>
    <text x="1322" y="248" class="font body2">字幕再大一点。</text>
    <rect x="1304" y="280" width="250" height="70" rx="18" fill="white"/>
    <text x="1322" y="312" class="font label">确认生成</text>
    <text x="1322" y="336" class="font body2">预览没问题，生成视频。</text>
  </g>

  <!-- Scenario 10 -->
  <g transform="translate(32 5728)">
    <rect width="1636" height="520" rx="30" fill="white" stroke="#DCE5F3" filter="url(#soft)"/>
    <rect x="26" y="24" width="48" height="48" rx="16" fill="#EEF3FF"/>
    <text x="42" y="56" class="font" font-size="18" font-weight="900" fill="#3A5BFD">10</text>
    <text x="110" y="42" class="font h2">用户调整成片设置</text>
    <text x="110" y="70" class="font body2">字幕、音乐、提示语、Logo、画中画等都是局部参数，使用裸文字反馈。</text>
    <rect x="1500" y="28" width="96" height="36" rx="18" fill="#FFF8EC" stroke="#FFD8A8"/>
    <text x="1524" y="52" class="font" font-size="15" font-weight="900" fill="#C76B0A">小节点</text>

    <rect x="24" y="122" width="320" height="350" rx="24" fill="#F8FAFC"/>
    <text x="48" y="164" class="font label">触发上下文</text>
    <rect x="48" y="192" width="250" height="100" rx="18" fill="white"/>
    <text x="66" y="226" class="font label">用户说</text>
    <text x="66" y="258" class="font body2">背景音乐再弱一点，不要压过旁白。</text>

    <text x="395" y="164" class="font label">LUI 应该这样出现</text>
    <rect x="890" y="178" width="365" height="72" rx="24" fill="#F8FAFD" filter="url(#soft)"/>
    <text x="924" y="222" class="font body">背景音乐再弱一点，不要压过旁白。</text>
    <rect x="395" y="280" width="540" height="58" rx="29" fill="#F7F8FA" stroke="#DDE2EA"/>
    <text x="420" y="317" class="font" font-size="21" font-weight="900" fill="#10B464">✓</text>
    <text x="455" y="317" class="font" font-size="20" font-weight="900" fill="#202634">Agent 思考完成</text>
    <text x="625" y="317" class="font small">本轮已完成 · 正在解析成片设置要求</text>
    <text x="395" y="392" class="font body">我已经把这次要求同步到右侧成片设置里。先看预览效果、字幕、音乐、提示语、Logo 和画中画。</text>
    <text x="395" y="450" class="font" font-size="22" font-weight="900" fill="#2F394C">优先确认：</text>
    <text x="520" y="450" class="font body">预览效果、字幕、音乐、提示语、Logo 和画中画。</text>

    <rect x="1280" y="122" width="320" height="350" rx="24" fill="#F8FAFC"/>
    <text x="1304" y="164" class="font label">用户可以再说</text>
    <rect x="1304" y="192" width="250" height="70" rx="18" fill="white"/>
    <text x="1322" y="224" class="font label">继续调</text>
    <text x="1322" y="248" class="font body2">字幕再大一点。</text>
    <rect x="1304" y="280" width="250" height="70" rx="18" fill="white"/>
    <text x="1322" y="312" class="font label">最终确认</text>
    <text x="1322" y="336" class="font body2">可以，生成视频。</text>
  </g>

  <text x="32" y="6324" class="font h2">四、边界场景：偏题回复与历史版本</text>

  <!-- Scenario 11 -->
  <g transform="translate(32 6360)">
    <rect width="790" height="430" rx="30" fill="white" stroke="#DCE5F3" filter="url(#soft)"/>
    <rect x="26" y="24" width="48" height="48" rx="16" fill="#EEF3FF"/>
    <text x="42" y="56" class="font" font-size="18" font-weight="900" fill="#3A5BFD">11</text>
    <text x="110" y="42" class="font h2">偏题对话</text>
    <text x="110" y="70" class="font body2">不更新右侧，只做 AI 回复。</text>
    <rect x="48" y="118" width="260" height="78" rx="22" fill="#F8FAFD" filter="url(#soft)"/>
    <text x="78" y="166" class="font body">今天天气怎么样？</text>
    <rect x="48" y="232" width="410" height="132" rx="24" fill="url(#whiteCard)" stroke="#E8EDF5"/>
    <rect x="76" y="260" width="88" height="32" rx="16" fill="#EEF3FF"/>
    <text x="96" y="282" class="font" font-size="15" font-weight="900" fill="#5E6F96">AI 回复</text>
    <text x="76" y="326" class="font body2">这条需求和当前视频创编关系不大。</text>
    <text x="76" y="354" class="font body2">你直接告诉我要改哪一块就行。</text>
  </g>

  <!-- Scenario 12 -->
  <g transform="translate(878 6360)">
    <rect width="790" height="430" rx="30" fill="white" stroke="#DCE5F3" filter="url(#soft)"/>
    <rect x="26" y="24" width="48" height="48" rx="16" fill="#EEF3FF"/>
    <text x="42" y="56" class="font" font-size="18" font-weight="900" fill="#3A5BFD">12</text>
    <text x="110" y="42" class="font h2">历史版本</text>
    <text x="110" y="70" class="font body2">大节点被重生成后，旧卡变只读。</text>
    <rect x="48" y="122" width="600" height="120" rx="30" fill="url(#whiteCard)" stroke="#DCE5F2"/>
    <rect x="76" y="150" width="64" height="64" rx="20" fill="white"/>
    <text x="93" y="190" class="font" font-size="28" font-weight="900" fill="#8A93A6">▤</text>
    <text x="166" y="170" class="font" font-size="22" font-weight="900" fill="#687286">右侧方案规划已生成 · 历史版本</text>
    <rect x="166" y="188" width="58" height="30" rx="15" fill="#EEF1F6"/>
    <text x="182" y="210" class="font" font-size="15" font-weight="900" fill="#7A8496">只读</text>
    <text x="600" y="196" class="font" font-size="32" font-weight="400" fill="#8A93A6">›</text>
    <text x="48" y="310" class="font body2">LUI 卡里不显示时间。点击进入历史详情后，再看具体时间、复制或下载历史素材。</text>
  </g>
</svg>
